HIERARCHY
ROOT Hip
{
	OFFSET 0 1.131 0.0052
	CHANNELS 6 Xposition Yposition Zposition Xrotation Yrotation Zrotation
	JOINT Abdomen
	{
		OFFSET 0 -0.047353 -0.05
		CHANNELS 3 Xrotation Zrotation Yrotation
		JOINT Chest
		{
			OFFSET 0 0.132153 0.007439
			CHANNELS 3 Xrotation Zrotation Yrotation
			JOINT Neck
			{
				OFFSET 0 0.3078 0.006161
				CHANNELS 3 Xrotation Zrotation Yrotation
				JOINT Head_comp
				{
					OFFSET 0 0.0884 0.013
					CHANNELS 3 Xrotation Yrotation Zrotation
					End Site
					{
						OFFSET -0 0.156 0.0624
					}
				}
			}
			JOINT Left_Collar
			{
				OFFSET 0.02282 0.250342 0.017193
				CHANNELS 2 Yrotation Zrotation
				JOINT Left_Shoulder
				{
					OFFSET 0.15421 0 0
					CHANNELS 3 Xrotation Yrotation Zrotation
					JOINT Left_Forearm
					{
						OFFSET 0.265212 0 0
						CHANNELS 2 Yrotation Xrotation
						JOINT Left_Hand
						{
							OFFSET 0.27571 0 0
							CHANNELS 2 Zrotation Yrotation
							JOINT L1ProxPhalanx
							{
								OFFSET 0.014142 0.001733 0.014142
								CHANNELS 3 Yrotation Zrotation Xrotation
								JOINT L1MidPhalanx
								{
									OFFSET 0.04 0 0
									CHANNELS 1 Zrotation
									JOINT L1DistPhalanx
									{
										OFFSET 0.035 0 0
										CHANNELS 1 Zrotation
										End Site
										{
											OFFSET 0.029 -0 -0
										}
									}
								}
							}
							JOINT L2ProxPhalanx
							{
								OFFSET 0.0821037 0.001578 0.0219996
								CHANNELS 2 Yrotation Zrotation
								JOINT L2MidPhalanx
								{
									OFFSET 0.04 0 0
									CHANNELS 1 Zrotation
									JOINT L2DistPhalanx
									{
										OFFSET 0.028 0 0
										CHANNELS 1 Zrotation
										End Site
										{
											OFFSET 0.02 -0 -0
										}
									}
								}
							}
							JOINT L3ProxPhalanx
							{
								OFFSET 0.083 0 0
								CHANNELS 2 Yrotation Zrotation
								JOINT L3MidPhalanx
								{
									OFFSET 0.053 0 0
									CHANNELS 1 Zrotation
									JOINT L3DistPhalanx
									{
										OFFSET 0.03 0 0
										CHANNELS 1 Zrotation
										End Site
										{
											OFFSET 0.023 -0 -0
										}
									}
								}
							}
							JOINT L4ProxPhalanx
							{
								OFFSET 0.077274 -0.000761 -0.0207055
								CHANNELS 2 Yrotation Zrotation
								JOINT L4MidPhalanx
								{
									OFFSET 0.05 0 0
									CHANNELS 1 Zrotation
									JOINT L4DistPhalanx
									{
										OFFSET 0.03 0 0
										CHANNELS 1 Zrotation
										End Site
										{
											OFFSET 0.023 -0 -0
										}
									}
								}
							}
							JOINT L5ProxPhalanx
							{
								OFFSET 0.0675499 -0.001644 -0.039
								CHANNELS 2 Yrotation Zrotation
								JOINT L5MidPhalanx
								{
									OFFSET 0.04 0 0
									CHANNELS 1 Zrotation
									JOINT L5DistPhalanx
									{
										OFFSET 0.021 0 0
										CHANNELS 1 Zrotation
										End Site
										{
											OFFSET 0.022 -0 -0
										}
									}
								}
							}
						}
					}
				}
			}
			JOINT Right_Collar
			{
				OFFSET -0.02282 0.250342 0.017193
				CHANNELS 2 Yrotation Zrotation
				JOINT Right_Shoulder
				{
					OFFSET -0.15421 0 0
					CHANNELS 3 Xrotation Yrotation Zrotation
					JOINT Right_Forearm
					{
						OFFSET -0.265212 0 0
						CHANNELS 2 Yrotation Xrotation
						JOINT Right_Hand
						{
							OFFSET -0.27571 3e-006 0
							CHANNELS 2 Zrotation Yrotation
							JOINT R1ProxPhalanx
							{
								OFFSET -0.014142 0.001733 0.014142
								CHANNELS 3 Yrotation Zrotation Xrotation
								JOINT R1MidPhalanx
								{
									OFFSET -0.04 0 0
									CHANNELS 1 Zrotation
									JOINT R1DistPhalanx
									{
										OFFSET -0.035 0 0
										CHANNELS 1 Zrotation
										End Site
										{
											OFFSET -0.029 -0 -0
										}
									}
								}
							}
							JOINT R2ProxPhalanx
							{
								OFFSET -0.0821037 0.001578 0.0219996
								CHANNELS 2 Yrotation Zrotation
								JOINT R2MidPhalanx
								{
									OFFSET -0.04 0 0
									CHANNELS 1 Zrotation
									JOINT R2DistPhalanx
									{
										OFFSET -0.028 0 0
										CHANNELS 1 Zrotation
										End Site
										{
											OFFSET -0.02 -0 -0
										}
									}
								}
							}
							JOINT R3ProxPhalanx
							{
								OFFSET -0.083 0 0
								CHANNELS 2 Yrotation Zrotation
								JOINT R3MidPhalanx
								{
									OFFSET -0.053 0 0
									CHANNELS 1 Zrotation
									JOINT R3DistPhalanx
									{
										OFFSET -0.03 0 0
										CHANNELS 1 Zrotation
										End Site
										{
											OFFSET -0.023 -0 -0
										}
									}
								}
							}
							JOINT R4ProxPhalanx
							{
								OFFSET -0.077274 -0.000761 -0.0207055
								CHANNELS 2 Yrotation Zrotation
								JOINT R4MidPhalanx
								{
									OFFSET -0.05 0 0
									CHANNELS 1 Zrotation
									JOINT R4DistPhalanx
									{
										OFFSET -0.03 0 0
										CHANNELS 1 Zrotation
										End Site
										{
											OFFSET -0.023 -0 -0
										}
									}
								}
							}
							JOINT R5ProxPhalanx
							{
								OFFSET -0.0675499 -0.001644 -0.039
								CHANNELS 2 Yrotation Zrotation
								JOINT R5MidPhalanx
								{
									OFFSET -0.04 0 0
									CHANNELS 1 Zrotation
									JOINT R5DistPhalanx
									{
										OFFSET -0.021 0 0
										CHANNELS 1 Zrotation
										End Site
										{
											OFFSET -0.022 -0 -0
										}
									}
								}
							}
						}
					}
				}
			}
		}
	}
	JOINT Left_Thigh
	{
		OFFSET 0.1118 -0.1612 -0.0442
		CHANNELS 3 Xrotation Zrotation Yrotation
		JOINT Left_Shin
		{
			OFFSET 0 -0.477856 0
			CHANNELS 1 Xrotation
			JOINT Left_Foot
			{
				OFFSET 0 -0.431952 0
				CHANNELS 2 Xrotation Zrotation
				JOINT Left_Toe
				{
					OFFSET 0 -0.0442 0.119
					CHANNELS 1 Xrotation
					End Site
					{
						OFFSET -0 -0 0.07
					}
				}
			}
		}
	}
	JOINT Right_Thigh
	{
		OFFSET -0.1118 -0.1612 -0.0442
		CHANNELS 3 Xrotation Zrotation Yrotation
		JOINT Right_Shin
		{
			OFFSET 0 -0.477856 0
			CHANNELS 1 Xrotation
			JOINT Right_Foot
			{
				OFFSET 0 -0.431952 0
				CHANNELS 2 Xrotation Zrotation
				JOINT Right_Toe
				{
					OFFSET 0 -0.0442 0.119
					CHANNELS 1 Xrotation
					End Site
					{
						OFFSET -0 -0 0.07
					}
				}
			}
		}
	}
}
MOTION
Frames: 14
Frame Time: 0.009975
-0.0990105 -0.0600828 0.037739 5.28537e-012 -7.79979e-009 -5.10982e-006 0 -0 0 0 -0 0 0 -0 0 -0.711937 0.283854 -4.16967e-012 -4.39848 -23.6732 -19.108 -24.9496 -30.9577 -70.9049 3.67667 5.11342 6.1621 -40.5316 -43.5896 103.283 -7.10789 -4.81548 2.69559 -7.40342 -2.98992 -6.72733 5.89092 0.508958 -5.4973 -5.3917 11.1257 1.19015 -12.1062 -9.35422 19.4153 3.33565 -41.2194 -1.46018 6.98988 12.7615 -12.6592 8.59718 34.7007 77.6261 3.28591 -4.83052 -1.87745 50.8737 36.7195 87.5713 11.6435 8.45191 3.53265 8.89831 8.1139 8.12525 -6.80062 5.29505 9.60823 10.9364 -16.4505 6.9201 12.6474 8.19189 -25.3991 4.40223 39.1972 -13.8303 -0.0908238 -0.805447 0.00127683 0.0240216 0.0667931 0.805453 0 -0.0794178 -0.805447 0.00111649 1.70755e-006 0.0794079 0.805453 0 
-0.0990515 -0.0600819 0.0379937 -8.2299e-012 -6.35849e-009 -5.10982e-006 0 -0 0 0 -0 0 0 -0 0 -0.711952 0.283977 -4.25987e-012 -4.39848 -23.6732 -19.108 -24.9496 -30.9577 -70.9049 3.67667 5.11342 6.1621 -40.5316 -43.5896 103.283 -7.10789 -4.81548 2.69559 -7.40342 -2.98992 -6.72733 5.89092 0.508958 -5.4973 -5.3917 11.1257 1.19015 -12.1062 -9.35422 19.4153 3.33565 -41.2194 -1.46018 6.84055 12.5691 -11.4085 8.07803 35.1415 78.9126 3.21571 -4.72732 -1.83734 50.5297 36.4878 87.2023 12.0318 8.98375 3.7876 9.14617 8.67009 8.43141 -6.61973 5.75096 10.2202 11.3936 -16.2426 7.55274 13.1676 8.60606 -24.9318 4.99626 39.0896 -12.664 -0.0747874 -0.802869 0.00104804 0.0240216 0.0507585 0.802874 0 -0.0633815 -0.802869 0.000888214 2.41484e-006 0.0633729 0.802874 0 
-0.0990934 -0.0600811 0.0382456 3.4536e-012 -4.93238e-009 -5.10982e-006 0 -0 0 0 -0 0 0 -0 0 -0.711968 0.284104 -4.35336e-012 -4.39848 -23.6732 -19.108 -24.9496 -30.9577 -70.9049 3.67667 5.11342 6.1621 -40.5316 -43.5896 103.283 -7.10789 -4.81548 2.69559 -7.40342 -2.98992 -6.72733 5.89092 0.508958 -5.4973 -5.3917 11.1257 1.19015 -12.1062 -9.35422 19.4153 3.33565 -41.2194 -1.46018 6.69251 12.3786 -10.1676 7.5977 35.5937 80.1279 3.14611 -4.62502 -1.79757 50.1856 36.2561 86.8333 12.42 9.51559 4.04256 9.39402 9.22629 8.73757 -6.43885 6.20687 10.8321 11.8508 -16.0346 8.18537 13.6879 9.02024 -24.4646 5.59028 38.9821 -11.4977 -0.0589172 -0.800226 0.000822942 0.0240216 0.0348898 0.800231 0 -0.0475113 -0.800226 0.000663646 2.41484e-006 0.0475042 0.800231 0 
-0.0991364 -0.0600803 0.0384951 -1.49544e-011 -3.52086e-009 -5.10982e-006 0 -0 0 0 -0 0 0 -0 0 -0.711983 0.284233 -4.44758e-012 -4.39848 -23.6732 -19.108 -24.9496 -30.9577 -70.9049 3.67667 5.11342 6.1621 -40.5316 -43.5896 103.283 -7.10789 -4.81548 2.69559 -7.40342 -2.98992 -6.72733 5.89092 0.508958 -5.4973 -5.3917 11.1257 1.19015 -12.1062 -9.35422 19.4153 3.33565 -41.2194 -1.46018 6.54568 12.1898 -8.9361 7.15471 36.0568 81.2759 3.07709 -4.52355 -1.75814 49.8416 36.0244 86.4643 12.8083 10.0474 4.29751 9.64187 9.78248 9.04373 -6.25796 6.66278 11.444 12.308 -15.8267 8.81801 14.2081 9.43441 -23.9973 6.1843 38.8745 -10.3314 -0.0432072 -0.797517 0.000601491 0.0240216 0.0191814 0.797522 0 -0.0318013 -0.797517 0.000442736 2.41484e-006 0.0317961 0.797522 0 
-0.0991805 -0.0600796 0.038742 -1.17559e-012 -2.12347e-009 -5.10982e-006 0 -0 0 0 -0 0 0 -0 0 -0.711999 0.284365 -4.54286e-012 -4.39848 -23.6732 -19.108 -24.9496 -30.9577 -70.9049 3.67667 5.11342 6.1621 -40.5316 -43.5896 103.283 -7.10789 -4.81548 2.69559 -7.40342 -2.98992 -6.72733 5.89092 0.508958 -5.4973 -5.3917 11.1257 1.19015 -12.1062 -9.35422 19.4153 3.33565 -41.2194 -1.46018 6.40001 12.0028 -7.71397 6.74778 36.5304 82.3601 3.00861 -4.42287 -1.71901 49.4975 35.7927 86.0953 13.1965 10.5793 4.55246 9.88973 10.3387 9.3499 -6.07708 7.1187 12.0559 12.7651 -15.6187 9.45065 14.7283 9.84859 -23.53 6.77833 38.7669 -9.16505 -0.0276527 -0.794741 0.00038365 0.0240216 0.00362836 0.794746 0 -0.0162467 -0.794741 0.000225448 1.70755e-006 0.0162431 0.794746 0 
-0.0992256 -0.0600789 0.0389866 1.4542e-011 -7.39811e-010 -5.10981e-006 0 -0 0 0 -0 0 0 -0 0 -0.712014 0.284501 -4.6388e-012 -4.39848 -23.6732 -19.108 -24.9496 -30.9577 -70.9049 3.67667 5.11342 6.1621 -40.5316 -43.5896 103.283 -7.10789 -4.81548 2.69559 -7.40342 -2.98992 -6.72733 5.89092 0.508958 -5.4973 -5.3917 11.1257 1.19015 -12.1062 -9.35422 19.4153 3.33565 -41.2194 -1.46018 6.25543 11.8174 -6.50118 6.37573 37.0142 83.3833 2.94064 -4.32296 -1.68018 49.1535 35.561 85.7263 13.5848 11.1111 4.80742 10.1376 10.8949 9.65606 -5.8962 7.57461 12.6679 13.2223 -15.4107 10.0833 15.2485 10.2628 -23.0627 7.37235 38.6593 -7.99873 -0.0122498 -0.791898 0.000169399 0.0240216 -0.011773 0.791904 0 -0.000843903 -0.791898 1.17636e-005 2.41484e-006 0.000841751 0.791904 0 
-0.0992718 -0.0600783 0.0392288 -1.09858e-010 6.30392e-010 -5.10981e-006 0 -0 0 0 -0 0 0 -0 0 -0.71203 0.284639 -4.73342e-012 -4.39848 -23.6732 -19.108 -24.9496 -30.9577 -70.9049 3.67667 5.11342 6.1621 -40.5316 -43.5896 103.283 -7.10789 -4.81548 2.69559 -7.40342 -2.98992 -6.72733 5.89092 0.508958 -5.4973 -5.3917 11.1257 1.19015 -12.1062 -9.35422 19.4153 3.33565 -41.2194 -1.46018 6.1119 11.6336 -5.29787 6.03751 37.5077 84.348 2.87317 -4.22377 -1.64163 48.8095 35.3292 85.3573 13.973 11.6429 5.06237 10.3854 11.4511 9.96222 -5.71531 8.03052 13.2798 13.6795 -15.2028 10.7159 15.7687 10.6769 -22.5954 7.96637 38.5517 -6.8324 0.00300415 -0.788989 -4.12706e-005 0.0240216 -0.0270255 0.788994 0 0.0144092 -0.788989 -0.000198318 2.24993e-006 -0.0144101 0.788994 0 
-0.0993191 -0.0600778 0.0394687 -4.81046e-011 1.98736e-009 -5.1098e-006 0 -0 0 0 -0 0 0 -0 0 -0.712045 0.28478 -4.82746e-012 -4.39848 -23.6732 -19.108 -24.9496 -30.9577 -70.9049 3.67667 5.11342 6.1621 -40.5316 -43.5896 103.283 -7.10789 -4.81548 2.69559 -7.40342 -2.98992 -6.72733 5.89092 0.508958 -5.4973 -5.3917 11.1257 1.19015 -12.1062 -9.35422 19.4153 3.33565 -41.2194 -1.46018 5.96939 11.4512 -4.10431 5.73215 38.0106 85.2567 2.80618 -4.12529 -1.60335 48.4654 35.0975 84.9883 14.3613 12.1748 5.31732 10.6333 12.0073 10.2684 -5.53443 8.48643 13.8917 14.1366 -14.9948 11.3486 16.2889 11.0911 -22.1281 8.56039 38.4442 -5.66608 0.0181113 -0.786012 -0.000248356 0.0240216 -0.0421313 0.786017 0 0.0295163 -0.786012 -0.000404814 2.29208e-006 -0.0295159 0.786017 0 
-0.0993674 -0.0600772 0.0397062 -1.44695e-011 3.33126e-009 -5.1098e-006 0 -0 0 0 -0 0 0 -0 0 -0.712061 0.284924 -4.92056e-012 -4.39848 -23.6732 -19.108 -24.9496 -30.9577 -70.9049 3.67667 5.11342 6.1621 -40.5316 -43.5896 103.283 -7.10789 -4.81548 2.69559 -7.40342 -2.98992 -6.72733 5.89092 0.508958 -5.4973 -5.3917 11.1257 1.19015 -12.1062 -9.35422 19.4153 3.33565 -41.2194 -1.46018 5.82785 11.2702 -2.92089 5.4587 38.5224 86.1111 2.73964 -4.02747 -1.56533 48.1214 34.8658 84.6193 14.7495 12.7066 5.57228 10.8811 12.5634 10.5745 -5.35354 8.94234 14.5037 14.5938 -14.7868 11.9812 16.8091 11.5053 -21.6609 9.15442 38.3366 -4.49976 0.0330735 -0.782968 -0.000451851 0.0240216 -0.057092 0.782973 0 0.0444793 -0.782968 -0.000607713 8.92193e-007 -0.0444761 0.782973 0 
-0.0994168 -0.0600768 0.0399415 -1.96547e-011 4.66222e-009 -5.1098e-006 0 -0 0 0 -0 0 0 -0 0 -0.712076 0.285071 -5.01039e-012 -4.39848 -23.6732 -19.108 -24.9496 -30.9577 -70.9049 3.67667 5.11342 6.1621 -40.5316 -43.5896 103.283 -7.10789 -4.81548 2.69559 -7.40342 -2.98992 -6.72733 5.89092 0.508958 -5.4973 -5.3917 11.1257 1.19015 -12.1062 -9.35422 19.4153 3.33565 -41.2194 -1.46018 5.68727 11.0905 -1.74806 5.21627 39.0426 86.9131 2.67356 -3.93032 -1.52757 47.7773 34.6341 84.2503 15.1378 13.2385 5.82723 11.129 13.1196 10.8807 -5.17266 9.39826 15.1156 15.051 -14.5789 12.6138 17.3293 11.9195 -21.1936 9.74844 38.229 -3.33343 0.0478916 -0.779857 -0.00065174 0.0240216 -0.0719088 0.779862 0 0.0592975 -0.779857 -0.000806983 1.14705e-006 -0.0592932 0.779862 0 
-0.0994673 -0.0600764 0.0401745 7.56122e-012 5.98031e-009 -5.10979e-006 0 -0 0 0 -0 0 0 -0 0 -0.712092 0.285221 -5.09948e-012 -4.39848 -23.6732 -19.108 -24.9496 -30.9577 -70.9049 3.67667 5.11342 6.1621 -40.5316 -43.5896 103.283 -7.10789 -4.81548 2.69559 -7.40342 -2.98992 -6.72733 5.89092 0.508958 -5.4973 -5.3917 11.1257 1.19015 -12.1062 -9.35422 19.4153 3.33565 -41.2194 -1.46018 5.54761 10.9122 -0.586354 5.00403 39.5708 87.6643 2.6079 -3.8338 -1.49006 47.4333 34.4024 83.8813 15.526 13.7703 6.08218 11.3768 13.6758 11.1869 -4.99177 9.85417 15.7275 15.5082 -14.3709 13.2465 17.8495 12.3336 -20.7263 10.3425 38.1214 -2.16711 0.0625664 -0.776679 -0.000848005 0.0240216 -0.0865823 0.776685 0 0.0739715 -0.776679 -0.0010026 2.41484e-006 -0.0739673 0.776685 0 
-0.0995188 -0.060076 0.0404052 -6.11922e-012 7.28557e-009 -5.10979e-006 0 -0 0 0 -0 0 0 -0 0 -0.712107 0.285374 -5.18586e-012 -4.39848 -23.6732 -19.108 -24.9496 -30.9577 -70.9049 3.67667 5.11342 6.1621 -40.5316 -43.5896 103.283 -7.10789 -4.81548 2.69559 -7.40342 -2.98992 -6.72733 5.89092 0.508958 -5.4973 -5.3917 11.1257 1.19015 -12.1062 -9.35422 19.4153 3.33565 -41.2194 -1.46018 5.40885 10.7352 0.563607 4.8211 40.1067 88.3661 2.54267 -3.73791 -1.45279 47.0892 34.1707 83.5123 15.9143 14.3021 6.33714 11.6247 14.232 11.493 -4.81089 10.3101 16.3395 15.9653 -14.1629 13.8791 18.3697 12.7478 -20.259 10.9365 38.0138 -1.00079 0.0770982 -0.773435 -0.00104062 0.0240216 -0.101113 0.773441 0 0.0885032 -0.773435 -0.00119457 2.30332e-006 -0.0884974 0.773441 0 
-0.0995713 -0.0600757 0.0406337 -8.42259e-012 8.57802e-009 -5.10978e-006 0 -0 0 0 -0 0 0 -0 0 -0.712122 0.28553 -5.26913e-012 -4.39848 -23.6732 -19.108 -24.9496 -30.9577 -70.9049 3.67667 5.11342 6.1621 -40.5316 -43.5896 103.283 -7.10789 -4.81548 2.69559 -7.40342 -2.98992 -6.72733 5.89092 0.508958 -5.4973 -5.3917 11.1257 1.19015 -12.1062 -9.35422 19.4153 3.33565 -41.2194 -1.46018 5.27097 10.5593 1.70116 4.66662 40.6498 89.0197 2.47786 -3.64263 -1.41576 46.7452 33.9389 83.1433 16.3026 14.834 6.59209 11.8726 14.7882 11.7992 -4.63 10.766 16.9514 16.4225 -13.955 14.5118 18.8899 13.162 -19.7917 11.5305 37.9063 0.165536 0.0914871 -0.770126 -0.00122957 0.0240216 -0.1155 0.770132 0 0.102893 -0.770125 -0.00138287 1.70755e-006 -0.102885 0.770132 0 
-0.0996249 -0.0600754 0.0408599 8.0117e-012 9.85765e-009 -5.10977e-006 0 -0 0 0 -0 0 0 -0 0 -0.712138 0.285689 -5.34944e-012 -4.39848 -23.6732 -19.108 -24.9496 -30.9577 -70.9049 3.67667 5.11342 6.1621 -40.5316 -43.5896 103.283 -7.10789 -4.81548 2.69559 -7.40342 -2.98992 -6.72733 5.89092 0.508958 -5.4973 -5.3917 11.1257 1.19015 -12.1062 -9.35422 19.4153 3.33565 -41.2194 -1.46018 5.13396 10.3848 2.82558 4.53977 41.1996 89.6264 2.41345 -3.54794 -1.37896 46.4011 33.7072 82.7743 16.6908 15.3658 6.84704 12.1204 15.3444 12.1054 -4.44912 11.2219 17.5633 16.8797 -13.747 15.1444 19.4101 13.5762 -19.3244 12.1245 37.7987 1.33186 0.105733 -0.76675 -0.00141481 0.0240216 -0.129745 0.766757 0 0.117139 -0.76675 -0.00156745 9.13538e-007 -0.117129 0.766757 0 
